<svg width="140" height="32" viewBox="0 0 140 32" fill="none" xmlns="http://www.w3.org/2000/svg">
<path d="M0.958886 0.607579H11.2282L18.2921 17.822H18.6482L25.7121 0.607579H35.9814V31H27.9084V13.4294H27.671L20.9039 30.7626H16.0364L9.26931 13.3107H9.03187V31H0.958886V0.607579ZM39.8918 0.607579H50.1611L57.2249 17.822H57.5811L64.645 0.607579H74.9143V31H66.8413V13.4294H66.6038L59.8368 30.7626H54.9692L48.2022 13.3107H47.9647V31H39.8918V0.607579ZM108.267 15.8038C108.267 19.1873 107.609 22.0416 106.294 24.3665C104.978 26.6815 103.202 28.4376 100.966 29.6347C98.7301 30.8219 96.2369 31.4155 93.4866 31.4155C90.7165 31.4155 88.2134 30.817 85.9775 29.6199C83.7515 28.4129 81.9806 26.6519 80.6648 24.3368C79.3589 22.0119 78.7059 19.1675 78.7059 15.8038C78.7059 12.4203 79.3589 9.57097 80.6648 7.25592C81.9806 4.93098 83.7515 3.17491 85.9775 1.9877C88.2134 0.790606 90.7165 0.192058 93.4866 0.192058C96.2369 0.192058 98.7301 0.790606 100.966 1.9877C103.202 3.17491 104.978 4.93098 106.294 7.25592C107.609 9.57097 108.267 12.4203 108.267 15.8038ZM99.7788 15.8038C99.7788 13.9834 99.5364 12.4499 99.0516 11.2034C98.5767 9.94692 97.8694 8.99715 96.9295 8.35408C95.9995 7.70112 94.8519 7.37464 93.4866 7.37464C92.1213 7.37464 90.9687 7.70112 90.0289 8.35408C89.0989 8.99715 88.3915 9.94692 87.9067 11.2034C87.4319 12.4499 87.1944 13.9834 87.1944 15.8038C87.1944 17.6242 87.4319 19.1626 87.9067 20.419C88.3915 21.6656 89.0989 22.6154 90.0289 23.2683C90.9687 23.9114 92.1213 24.2329 93.4866 24.2329C94.8519 24.2329 95.9995 23.9114 96.9295 23.2683C97.8694 22.6154 98.5767 21.6656 99.0516 20.419C99.5364 19.1626 99.7788 17.6242 99.7788 15.8038ZM112.085 31V0.607579H120.336V12.8951H120.751L129.893 0.607579H139.509L129.24 14.1417L139.747 31H129.893L123.067 19.6028L120.336 23.1645V31H112.085Z" fill="white"/>
</svg>
